<svg width="64" height="64" viewBox="0 0 64 64" fill="none" xmlns="http://www.w3.org/2000/svg">
<path d="M59.1564 31.5636L35.0064 7.4261L33.3876 5.80735C33.0188 5.44096 32.52 5.23532 32.0001 5.23532C31.4802 5.23532 30.9815 5.44096 30.6126 5.80735L4.84388 31.5636C4.46595 31.9401 4.16727 32.3884 3.96546 32.8822C3.76365 33.376 3.66281 33.9052 3.66888 34.4386C3.69388 36.6386 5.52513 38.3949 7.72513 38.3949H10.3814V58.7511H53.6189V38.3949H56.3314C57.4001 38.3949 58.4064 37.9761 59.1626 37.2199C59.535 36.8487 59.83 36.4073 60.0307 35.9213C60.2313 35.4353 60.3335 34.9144 60.3314 34.3886C60.3314 33.3261 59.9126 32.3199 59.1564 31.5636ZM35.5001 54.2511H28.5001V41.5011H35.5001V54.2511ZM49.1189 33.8949V54.2511H39.5001V40.0011C39.5001 38.6199 38.3814 37.5011 37.0001 37.5011H27.0001C25.6189 37.5011 24.5001 38.6199 24.5001 40.0011V54.2511H14.8814V33.8949H8.88138L32.0064 10.7886L33.4501 12.2324L55.1251 33.8949H49.1189Z" fill="black"/>
</svg>
