<svg width="64" height="64" viewBox="0 0 64 64" fill="none" xmlns="http://www.w3.org/2000/svg">
<path d="M54.8187 14.9187L48.1625 8.26875C47.35 7.45625 46.2625 7 45.1125 7C43.9625 7 42.875 7.45 42.0625 8.26875L34.8937 15.425C34.0812 16.2375 33.625 17.3313 33.625 18.4812C33.625 19.6375 34.075 20.7188 34.8937 21.5375L40.4938 27.1437C39.218 30.1162 37.385 32.8169 35.0938 35.1C32.8 37.4062 30.1187 39.225 27.1437 40.5125L21.5438 34.9062C20.7313 34.0937 19.6437 33.6375 18.4937 33.6375C17.9265 33.6354 17.3646 33.7465 16.8408 33.9644C16.3171 34.1823 15.8421 34.5025 15.4438 34.9062L8.26875 42.0625C7.45625 42.875 7 43.9688 7 45.1187C7 46.275 7.45 47.3562 8.26875 48.175L14.9187 54.825C16.3062 56.2125 18.2188 57.0062 20.1812 57.0062C20.5875 57.0062 20.9813 56.975 21.3813 56.9062C29.6562 55.5437 37.8687 51.1375 44.5 44.5125C51.125 37.875 55.525 29.6625 56.9 21.3812C57.2938 19.0312 56.5062 16.6125 54.8187 14.9187ZM52.4688 20.6375C51.25 28.0063 47.2875 35.3562 41.3187 41.325C35.35 47.2937 28.0063 51.2562 20.6375 52.475C19.7125 52.6312 18.7625 52.3187 18.0875 51.65L11.5562 45.1187L18.4813 38.1875L25.9688 45.6875L26.025 45.7437L27.375 45.2437C31.4683 43.7388 35.1854 41.3617 38.2687 38.2774C41.352 35.193 43.7277 31.4751 45.2313 27.3812L45.7313 26.0312L38.1813 18.4875L45.1063 11.5562L51.6375 18.0875C52.3125 18.7625 52.625 19.7125 52.4688 20.6375Z" fill="black"/>
</svg>
