<svg width="203" height="100" viewBox="0 0 203 100" fill="none" xmlns="http://www.w3.org/2000/svg">
<circle cx="31.1067" cy="68.249" r="31.1067" fill="#D9B125"/>
<path d="M28.8886 68.3918C29.8486 68.6958 30.6006 69.2078 31.1446 69.9278C31.6886 70.6318 31.9606 71.5038 31.9606 72.5438C31.9606 74.0158 31.3846 75.1518 30.2326 75.9518C29.0966 76.7358 27.4326 77.1278 25.2406 77.1278H16.5526V60.3278H24.7606C26.8086 60.3278 28.3766 60.7198 29.4646 61.5038C30.5686 62.2878 31.1206 63.3518 31.1206 64.6958C31.1206 65.5118 30.9206 66.2398 30.5206 66.8798C30.1366 67.5198 29.5926 68.0238 28.8886 68.3918ZM20.4166 63.2558V67.2158H24.2806C25.2406 67.2158 25.9686 67.0478 26.4646 66.7118C26.9606 66.3758 27.2086 65.8798 27.2086 65.2238C27.2086 64.5678 26.9606 64.0798 26.4646 63.7598C25.9686 63.4238 25.2406 63.2558 24.2806 63.2558H20.4166ZM24.9526 74.1998C25.9766 74.1998 26.7446 74.0318 27.2566 73.6958C27.7846 73.3598 28.0486 72.8398 28.0486 72.1358C28.0486 70.7438 27.0166 70.0478 24.9526 70.0478H20.4166V74.1998H24.9526ZM47.6482 64.2158V77.1278H44.0962V75.5918C43.6002 76.1518 43.0082 76.5838 42.3202 76.8878C41.6322 77.1758 40.8882 77.3198 40.0882 77.3198C38.3922 77.3198 37.0482 76.8318 36.0562 75.8558C35.0642 74.8798 34.5682 73.4318 34.5682 71.5118V64.2158H38.3122V70.9598C38.3122 73.0398 39.1842 74.0798 40.9282 74.0798C41.8242 74.0798 42.5442 73.7918 43.0882 73.2158C43.6322 72.6238 43.9042 71.7518 43.9042 70.5998V64.2158H47.6482ZM64.2687 59.3198V77.1278H60.6927V75.6398C59.7647 76.7598 58.4207 77.3198 56.6607 77.3198C55.4447 77.3198 54.3407 77.0478 53.3487 76.5038C52.3727 75.9598 51.6047 75.1838 51.0447 74.1758C50.4847 73.1678 50.2047 71.9998 50.2047 70.6718C50.2047 69.3438 50.4847 68.1758 51.0447 67.1678C51.6047 66.1598 52.3727 65.3838 53.3487 64.8398C54.3407 64.2958 55.4447 64.0238 56.6607 64.0238C58.3087 64.0238 59.5967 64.5438 60.5247 65.5838V59.3198H64.2687ZM57.3087 74.2478C58.2527 74.2478 59.0367 73.9278 59.6607 73.2878C60.2847 72.6318 60.5967 71.7598 60.5967 70.6718C60.5967 69.5838 60.2847 68.7198 59.6607 68.0798C59.0367 67.4238 58.2527 67.0958 57.3087 67.0958C56.3487 67.0958 55.5567 67.4238 54.9327 68.0798C54.3087 68.7198 53.9967 69.5838 53.9967 70.6718C53.9967 71.7598 54.3087 72.6318 54.9327 73.2878C55.5567 73.9278 56.3487 74.2478 57.3087 74.2478ZM71.0939 77.4158C69.9579 77.4158 68.9099 77.2078 67.9499 76.7918C67.0059 76.3598 66.2299 75.7518 65.6219 74.9678L67.7819 72.3758C68.6939 73.6078 69.7339 74.2238 70.9019 74.2238C72.4859 74.2238 73.2779 73.2958 73.2779 71.4398V63.4478H67.3739V60.3278H77.1419V71.2238C77.1419 73.2878 76.6299 74.8398 75.6059 75.8798C74.5819 76.9038 73.0779 77.4158 71.0939 77.4158ZM85.9263 64.0238C87.9263 64.0238 89.4623 64.5038 90.5343 65.4638C91.6063 66.4078 92.1423 67.8398 92.1423 69.7598V77.1278H88.6383V75.5198C87.9343 76.7198 86.6223 77.3198 84.7023 77.3198C83.7103 77.3198 82.8463 77.1518 82.1103 76.8158C81.3903 76.4798 80.8383 76.0158 80.4543 75.4238C80.0703 74.8318 79.8783 74.1598 79.8783 73.4078C79.8783 72.2078 80.3263 71.2638 81.2223 70.5758C82.1343 69.8878 83.5343 69.5438 85.4223 69.5438H88.3983C88.3983 68.7278 88.1503 68.1038 87.6543 67.6718C87.1583 67.2238 86.4143 66.9998 85.4223 66.9998C84.7343 66.9998 84.0543 67.1118 83.3823 67.3358C82.7263 67.5438 82.1663 67.8318 81.7023 68.1998L80.3583 65.5838C81.0623 65.0878 81.9023 64.7038 82.8783 64.4318C83.8703 64.1598 84.8863 64.0238 85.9263 64.0238ZM85.6383 74.7998C86.2783 74.7998 86.8463 74.6558 87.3423 74.3678C87.8383 74.0638 88.1903 73.6238 88.3983 73.0478V71.7278H85.8303C84.2943 71.7278 83.5263 72.2318 83.5263 73.2398C83.5263 73.7198 83.7103 74.1038 84.0783 74.3918C84.4623 74.6638 84.9823 74.7998 85.6383 74.7998ZM103.379 64.0238C104.979 64.0238 106.267 64.5038 107.243 65.4638C108.235 66.4238 108.731 67.8478 108.731 69.7358V77.1278H104.987V70.3118C104.987 69.2878 104.763 68.5278 104.315 68.0318C103.867 67.5198 103.219 67.2638 102.371 67.2638C101.427 67.2638 100.675 67.5598 100.115 68.1518C99.5548 68.7278 99.2748 69.5918 99.2748 70.7438V77.1278H95.5308V64.2158H99.1068V65.7278C99.6028 65.1838 100.219 64.7678 100.955 64.4798C101.691 64.1758 102.499 64.0238 103.379 64.0238ZM125.133 64.2158V77.1278H121.581V75.5918C121.085 76.1518 120.493 76.5838 119.805 76.8878C119.117 77.1758 118.373 77.3198 117.573 77.3198C115.877 77.3198 114.533 76.8318 113.541 75.8558C112.549 74.8798 112.053 73.4318 112.053 71.5118V64.2158H115.797V70.9598C115.797 73.0398 116.669 74.0798 118.413 74.0798C119.309 74.0798 120.029 73.7918 120.573 73.2158C121.117 72.6238 121.389 71.7518 121.389 70.5998V64.2158H125.133ZM132.945 77.3198C131.873 77.3198 130.825 77.1918 129.801 76.9358C128.777 76.6638 127.961 76.3278 127.353 75.9278L128.601 73.2398C129.177 73.6078 129.873 73.9118 130.689 74.1518C131.505 74.3758 132.305 74.4878 133.089 74.4878C134.673 74.4878 135.465 74.0958 135.465 73.3118C135.465 72.9438 135.249 72.6798 134.817 72.5198C134.385 72.3598 133.721 72.2238 132.825 72.1118C131.769 71.9518 130.897 71.7678 130.209 71.5598C129.521 71.3518 128.921 70.9838 128.409 70.4558C127.913 69.9278 127.665 69.1758 127.665 68.1998C127.665 67.3838 127.897 66.6638 128.361 66.0398C128.841 65.3998 129.529 64.9038 130.425 64.5518C131.337 64.1998 132.409 64.0238 133.641 64.0238C134.553 64.0238 135.457 64.1278 136.353 64.3358C137.265 64.5278 138.017 64.7998 138.609 65.1518L137.361 67.8158C136.225 67.1758 134.985 66.8558 133.641 66.8558C132.841 66.8558 132.241 66.9678 131.841 67.1918C131.441 67.4158 131.241 67.7038 131.241 68.0558C131.241 68.4558 131.457 68.7358 131.889 68.8958C132.321 69.0558 133.009 69.2078 133.953 69.3518C135.009 69.5278 135.873 69.7198 136.545 69.9278C137.217 70.1198 137.801 70.4798 138.297 71.0078C138.793 71.5358 139.041 72.2718 139.041 73.2158C139.041 74.0158 138.801 74.7278 138.321 75.3518C137.841 75.9758 137.137 76.4638 136.209 76.8158C135.297 77.1518 134.209 77.3198 132.945 77.3198ZM151.983 74.2478V77.1278H140.463V74.8718L147.039 67.0958H140.631V64.2158H151.767V66.4718L145.191 74.2478H151.983Z" fill="#494949"/>
<path d="M10 23.0605L105.238 20.7256L170.01 59.9402" stroke="black" stroke-width="9"/>
</svg>
