<svg width="64" height="64" viewBox="0 0 64 64" fill="none" xmlns="http://www.w3.org/2000/svg">
<path d="M58 10H6C4.89375 10 4 10.8937 4 12V52C4 53.1063 4.89375 54 6 54H58C59.1063 54 60 53.1063 60 52V12C60 10.8937 59.1063 10 58 10ZM55.5 16.925V49.5H8.5V16.925L6.775 15.5813L9.23125 12.425L11.9062 14.5063H52.1L54.775 12.425L57.2313 15.5813L55.5 16.925ZM52.1 14.5L32 30.125L11.9 14.5L9.225 12.4187L6.76875 15.575L8.49375 16.9188L29.8438 33.5187C30.4577 33.9958 31.2131 34.2547 31.9906 34.2547C32.7681 34.2547 33.5235 33.9958 34.1375 33.5187L55.5 16.925L57.225 15.5813L54.7687 12.425L52.1 14.5Z" fill="black"/>
</svg>
